<svg fill="none" xmlns="http://www.w3.org/2000/svg" viewBox="0 0 40 40"><g clip-path="url(#clip0)"><path d="M22.352 39.016l16.64-16.639a3.361 3.361 0 00-4.754-4.753l-14.26 14.26-14.26-14.26a3.361 3.361 0 00-4.754 4.753l16.639 16.639a3.357 3.357 0 004.75 0zM23.36 19.01L37.282 5.8a3.278 3.278 0 000-4.804c-1.397-1.328-3.663-1.328-5.062 0L20.829 11.804 9.438.996C8.04-.332 5.772-.332 4.375.996a3.277 3.277 0 000 4.804l13.922 13.21c1.398 1.327 3.664 1.327 5.063 0z" fill="#000"/></g><defs><clipPath id="clip0"><path fill="#fff" transform="rotate(90 20 20)" d="M0 0h40v40H0z"/></clipPath></defs></svg>