<svg height="512" width="512" xmlns="http://www.w3.org/2000/svg"><path d="M496 512h-24c-8.836 0-16-7.164-16-16s7.164-16 16-16h24c8.836 0 16 7.164 16 16s-7.164 16-16 16zM40 512H16c-8.836 0-16-7.164-16-16s7.164-16 16-16h24c8.836 0 16 7.164 16 16s-7.164 16-16 16zM416 512H96c-8.836 0-16-7.164-16-16s7.164-16 16-16h320c8.836 0 16 7.164 16 16s-7.164 16-16 16zM256 443.552c-11.78 0-23.56-4.484-32.527-13.452L88.687 295.313C78.184 284.811 72.4 270.85 72.4 256c0-14.708 5.688-28.573 16.017-39.042 10.31-10.451 24.214-16.233 39.151-16.284h.189c14.966 0 29.552 6.009 40.05 16.507L200 249.373V56c0-30.878 25.122-56 56-56s56 25.122 56 56v193.373l32.687-32.687C355.188 206.184 369.15 200.4 384 200.4c14.708 0 28.573 5.688 39.042 16.017 10.45 10.31 16.233 24.214 16.284 39.151.051 15.032-5.966 29.698-16.507 40.24L288.527 430.1c-8.967 8.968-20.747 13.452-32.527 13.452zM127.761 232.673h-.084c-6.349.021-12.202 2.421-16.479 6.758A23.454 23.454 0 00104.401 256c0 6.302 2.456 12.228 6.914 16.686L246.1 407.473c5.459 5.459 14.341 5.459 19.8 0l134.292-134.292c4.556-4.557 7.157-10.937 7.134-17.504-.021-6.349-2.421-12.202-6.758-16.479a23.454 23.454 0 00-16.569-6.797c-6.302 0-12.228 2.456-16.687 6.914l-60 60A15.999 15.999 0 01280 288V56c0-13.234-10.767-24-24-24-13.234 0-24 10.766-24 24v232a16 16 0 01-27.314 11.313l-59.506-59.505c-4.536-4.537-10.882-7.135-17.419-7.135z"/></svg>