<svg width="89" height="92.68" xmlns="http://www.w3.org/2000/svg" xmlns:xlink="http://www.w3.org/1999/xlink"><defs><path id="a" d="M17.67 34.04H32.2v20.18H17.67z"/><path d="M19.57 54.22s-2.04 2.55-9.47 2.52C2.04 56.71.01 54.19 0 54.22V.7C0 .32.31 0 .7 0h1.12c.39 0 .7.32.7.7v19.47c1.67.66 3.94 1.22 8.21 1.26 2.38-.01 4.65-.57 6.31-1.26V.7c0-.38.31-.69.7-.69h1.12c.4 0 .7.32.7.7v53.52z" id="c"/><path id="e" d="M37.24 34.04h14.52v20.18H37.24z"/><path d="M19.57 54.22s-2.04 2.55-9.47 2.52C2.04 56.71.01 54.19 0 54.22V.7C0 .32.31 0 .7 0h1.12c.39 0 .7.32.7.7v19.47c1.67.66 3.94 1.22 8.21 1.26 2.38-.01 4.65-.57 6.31-1.26V.7c0-.38.31-.69.7-.69h1.12c.4 0 .7.32.7.7v53.52z" id="g"/><path id="i" d="M56.8 34.04h14.53v20.18H56.8z"/><path d="M19.57 54.22s-2.04 2.55-9.47 2.52C2.04 56.71.01 54.19 0 54.22V.7C0 .32.31 0 .7 0h1.12c.39 0 .7.32.7.7v19.47c1.67.66 3.94 1.22 8.21 1.26 2.38-.01 4.65-.57 6.31-1.26V.7c0-.38.31-.69.7-.69h1.12c.4 0 .7.32.7.7v53.52z" id="k"/><filter x="-6.9%" y="-5%" width="113.8%" height="109.9%" filterUnits="objectBoundingBox" id="b"><feOffset dx="2" in="SourceAlpha" result="shadowOffsetInner1"/><feComposite in="shadowOffsetInner1" in2="SourceAlpha" operator="arithmetic" k2="-1" k3="1" result="shadowInnerInner1"/><feColorMatrix values="0 0 0 0 0.835294118 0 0 0 0 0.796078431 0 0 0 0 0.705882353 0 0 0 1 0" in="shadowInnerInner1"/></filter><filter x="-6.9%" y="-5%" width="113.8%" height="109.9%" filterUnits="objectBoundingBox" id="f"><feOffset dx="2" in="SourceAlpha" result="shadowOffsetInner1"/><feComposite in="shadowOffsetInner1" in2="SourceAlpha" operator="arithmetic" k2="-1" k3="1" result="shadowInnerInner1"/><feColorMatrix values="0 0 0 0 0.835294118 0 0 0 0 0.796078431 0 0 0 0 0.705882353 0 0 0 1 0" in="shadowInnerInner1"/></filter><filter x="-6.9%" y="-5%" width="113.8%" height="109.9%" filterUnits="objectBoundingBox" id="j"><feOffset dx="2" in="SourceAlpha" result="shadowOffsetInner1"/><feComposite in="shadowOffsetInner1" in2="SourceAlpha" operator="arithmetic" k2="-1" k3="1" result="shadowInnerInner1"/><feColorMatrix values="0 0 0 0 0.835294118 0 0 0 0 0.796078431 0 0 0 0 0.705882353 0 0 0 1 0" in="shadowInnerInner1"/></filter></defs><g fill="none" fill-rule="evenodd"><use fill="#EFE9DA" xlink:href="#a"/><use fill="#000" filter="url(#b)" xlink:href="#a"/><g transform="translate(15.15 32.78)"><mask id="d" fill="#fff"><use xlink:href="#c"/></mask><use fill="#CDCDCD" xlink:href="#c"/><path fill-opacity=".2" fill="#FFF" mask="url(#d)" d="M-.63-.63H9.78v60.52H-.63z"/></g><use fill="#EFE9DA" xlink:href="#e"/><use fill="#000" filter="url(#f)" xlink:href="#e"/><g transform="translate(34.72 32.78)"><mask id="h" fill="#fff"><use xlink:href="#g"/></mask><use fill="#3B393F" xlink:href="#g"/><path fill-opacity=".05" fill="#FFF" mask="url(#h)" d="M-.63-.63H9.78v60.52H-.63z"/></g><use fill="#EFE9DA" xlink:href="#i"/><use fill="#000" filter="url(#j)" xlink:href="#i"/><g transform="translate(54.28 32.78)"><mask id="l" fill="#fff"><use xlink:href="#k"/></mask><use fill="#FF4C00" xlink:href="#k"/><path fill-opacity=".1" fill="#FFF" mask="url(#l)" d="M-.63-.63H9.78v60.52H-.63z"/></g><path fill="#FF4C00" d="M20.2 51.7h9.47v18.9l-4.74-2.51-4.73 2.52z"/><path d="M82.66 39.84A38.14 38.14 0 0044.5 2.53 38.14 38.14 0 006.34 39.95v13.51l76.33-.32-.01-13.3zM3.8 53.46V39.91A40.68 40.68 0 0144.5 0a40.68 40.68 0 0140.69 39.78l.01 13.36-81.4.32z" fill="#3B393F" fill-rule="nonzero"/><path d="M11.4 20.9l4.9-1.36a11.62 11.62 0 004.96-2.81 33.47 33.47 0 0146.45 0 11.62 11.62 0 004.96 2.81l4.9 1.35A38.79 38.79 0 0044.5 2.21 38.79 38.79 0 0011.4 20.9" fill="#000"/><rect fill="#000" y="51.7" width="10.1" height="23.96" rx="2"/><rect fill="#3B393F" x="3.79" y="46.65" width="10.1" height="32.78" rx="2"/><rect fill="#000" x="78.9" y="51.7" width="10.1" height="23.96" rx="2"/><rect fill="#3B393F" x="75.11" y="46.65" width="10.1" height="32.78" rx="2"/></g></svg>