<svg width="168" height="37" xmlns="http://www.w3.org/2000/svg"><g fill="none" fill-rule="evenodd"><path d="M14.525 6.973a400.63 400.63 0 01-.451 8.673c-.168 2.607-.393 4.956-.676 7.043-.284 2.089-.66 3.936-1.128 5.54-.467 1.604-1.068 2.99-1.803 4.16-.467.77-.994 1.405-1.578 1.906-.584.5-1.194.901-1.827 1.203-.635.301-1.261.51-1.879.627a9.348 9.348 0 01-1.727.175c-.768 0-1.412-.058-1.93-.175A7.546 7.546 0 010 35.598l.75-5.915a3.832 3.832 0 001.203.2c.534 0 1.06-.132 1.577-.402.518-.266.96-.717 1.329-1.353.5-.733.933-1.811 1.301-3.232.367-1.421.693-3.234.976-5.44.284-2.206.51-4.837.677-7.896.166-3.058.282-6.624.35-10.702H28.85v35.09h-6.862V6.974h-7.462zM49.41 20.96h-.15l-2.153 3.659-8.916 11.33h-4.107V10.883h6.512v11.931l-.3 3.41h.2l2.054-3.56 9.014-11.78h4.107v25.065h-6.51v-11.43zM73.347 16.648v19.3h-6.71v-19.3h-7.162v-5.766H80.31v5.766z" fill="#000"/><path d="M94.8 6.27c-.667 0-1.302.026-1.902.076a15.25 15.25 0 00-1.453.176v11.38c.133.033.333.067.601.1a15.38 15.38 0 001.728.1h.625c.903 0 1.797-.083 2.68-.25a6.609 6.609 0 002.38-.927c.702-.452 1.26-1.079 1.678-1.882.416-.801.626-1.854.626-3.157 0-1.103-.2-2.014-.601-2.733a4.924 4.924 0 00-1.578-1.728 6.122 6.122 0 00-2.229-.903 12.922 12.922 0 00-2.555-.251M89.217.58A56.395 56.395 0 0194.25.355c1.736 0 3.481.143 5.233.427 1.753.283 3.332.852 4.733 1.704 1.404.852 2.546 2.038 3.43 3.558.884 1.522 1.328 3.502 1.328 5.941 0 2.206-.382 4.07-1.152 5.59-.768 1.522-1.785 2.765-3.055 3.735-1.27.97-2.713 1.672-4.33 2.106-1.621.435-3.3.652-5.033.652h-.805a28.82 28.82 0 01-2.328-.1 8.43 8.43 0 01-.827-.1v12.08h-6.86V1.209A47.306 47.306 0 0189.216.58zM122.035 15.292c-2.035.06-2.986.572-3.836 1.572-.845.995-1.332 2.353-1.496 4.058l9.352.087c.132-1.804-.03-3.197-.71-4.166-.68-.97-1.848-1.594-3.31-1.551m5.196 20.531c-1.718.552-3.548.828-5.484.828-4.04 0-6.995-1.178-8.865-3.535-1.87-2.356-2.804-5.59-2.804-9.7 0-4.41 1.052-7.72 3.154-9.926 2.104-2.206 5.059-3.309 8.865-3.309 1.269 0 2.505.167 3.707.501a8.64 8.64 0 013.206 1.654c.935.77 1.686 1.806 2.253 3.109.568 1.303.852 2.925.852 4.864 0 .7-.042 1.453-.125 2.254a29.587 29.587 0 01-.375 2.508h-15.096c.1 2.105.76 3.692 1.742 4.761.98 1.07 2.571 1.604 4.766 1.604 1.363 0 2.567-.266 3.669-.626 1.373-.449 2.665-1.06 2.665-1.06l1.952 4.043c-1.002.802-2.363 1.479-4.082 2.03zM153.281 15.726s-1.993-.405-3.563-.405c-4.47 0-7.372 2.561-7.372 8.214 0 5.303 2.214 7.923 6.881 7.923 1.522 0 4.455-.408 4.455-.408l.898 4.53c-1.227.392-3.635.984-6.533.984-9.086 0-12.427-6.637-12.427-13.373 0-6.783 3.93-12.88 12.968-12.88 1.67 0 3.73.196 5.648.688l-.955 4.727M163.567 18.03a3.696 3.696 0 01-3.695-3.699 3.697 3.697 0 117.39 0 3.697 3.697 0 01-3.695 3.698zM167.262 32.622a3.696 3.696 0 11-7.39 0c0-2.044 1.653-3.7 3.695-3.7a3.698 3.698 0 013.695 3.7" fill="#FF4C00"/></g></svg>